:SAMPLES-PER-SECOND 30
:FRAME-RANGE 1-668
:FULLY-SPECIFIED
:DEGREES
627
root  -20.8845 38.998 53.6429 -171.737 46.8997 -177.208
RightUpLeg  -6.58962 -7.32683 -2.3819
RightLeg  14.4468 1.59511 1.71885
RightFoot  -14.1438 0.0601733 6.37947
RightToes  5.38607e-012 1.2921e-014 -6.02303e-014
Spine  -5.59553 -0.920407 4.26484
Spine1  7.72057 -0.599038 -1.77942
HEad  10.6002 31.0248 -4.89013
LeftShoulder1  0.516018 1.58485 -24.0011
LeftArm  -7.96015 11.1948 -46.5136
LeftForeArm  35.0085 -4.4902 -10.1598
LeftHand  -0.0332872 4.89861 2.04073
RightShoulder  1.70781 2.02976 25.9728
RightArm  -37.7899 3.2201 47.0071
RightForeArm  73.1433 -3.67336 -5.2626
RightHand  0.364914 -7.94716 -17.3229
LeftUpLeg  -16.1645 2.51152 12.4759
LeftLeg  24.4624 12.6201 6.52225
LeftFoot  -12.5098 0.0345735 -3.96007
LeftToes  -6.11857e-011 5.00151e-011 -2.22593e-011
628
root  -20.2439 38.9584 53.5723 -172.822 47.7946 -178.203
RightUpLeg  -5.7224 -7.03333 -2.5917
RightLeg  15.0804 2.17088 1.59338
RightFoot  -15.3126 0.10217 5.93911
RightToes  5.38607e-012 1.2921e-014 -6.02303e-014
Spine  -5.15015 -0.453488 5.57648
Spine1  7.67116 -0.0563426 -2.25186
HEad  9.69177 31.5251 -5.97027
LeftShoulder1  0.444619 1.84955 -24.5793
LeftArm  -8.07049 10.9424 -47.5179
LeftForeArm  34.5164 -3.00532 -10.2245
LeftHand  -0.0336072 4.85341 1.97448
RightShoulder  1.77417 2.30911 25.5518
RightArm  -39.708 3.61861 46.0949
RightForeArm  74.3851 -3.3466 -6.8261
RightHand  0.421126 -8.4022 -16.9227
LeftUpLeg  -18.9542 0.506647 8.90167
LeftLeg  28.0901 13.1777 7.84324
LeftFoot  -12.9922 0.029291 -3.37118
LeftToes  -6.11857e-011 5.00151e-011 -2.22593e-011
629
root  -19.5819 38.9306 53.4626 -173.853 48.6093 -179.23
RightUpLeg  -4.73109 -7.16123 -2.90609
RightLeg  15.4671 3.00665 1.66117
RightFoot  -16.3448 0.123927 5.37018
RightToes  5.38607e-012 1.2921e-014 -6.02303e-014
Spine  -5.03205 0.116276 6.66418
Spine1  8.01052 0.582816 -2.76825
HEad  8.80103 31.8285 -7.17379
LeftShoulder1  0.360398 2.14337 -25.0816
LeftArm  -8.20123 10.8035 -48.3634
LeftForeArm  33.4062 -1.68465 -10.24
LeftHand  -0.031713 4.94957 2.12244
RightShoulder  1.83609 2.59748 25.041
RightArm  -42.2802 4.5149 45.9462
RightForeArm  76.3712 -2.88651 -8.94905
RightHand  0.503793 -9.05737 -16.5639
LeftUpLeg  -21.4979 -0.747065 5.24696
LeftLeg  30.1004 14.6698 9.34395
LeftFoot  -12.5432 0.0456497 -2.81689
LeftToes  -6.11857e-011 5.00151e-011 -2.22593e-011
630
root  -18.8831 38.9271 53.3117 -174.804 49.4124 179.73
RightUpLeg  -3.51662 -6.14749 -2.94326
RightLeg  15.2317 2.7336 1.05131
RightFoot  -17.1295 0.148401 5.23004
RightToes  5.38607e-012 1.2921e-014 -6.02303e-014
Spine  -5.00987 0.746295 7.53928
Spine1  8.19372 1.29402 -3.35993
HEad  8.56063 32.2528 -7.72915
LeftShoulder1  0.261455 2.46754 -25.2948
LeftArm  -8.24903 11.1218 -48.9045
LeftForeArm  32.527 -0.645746 -10.2869
LeftHand  -0.0314929 5.1294 2.09299
RightShoulder  1.904 2.85354 24.8481
RightArm  -43.9177 5.60923 46.1452
RightForeArm  77.5007 -2.57895 -10.4004
RightHand  0.577013 -9.67409 -16.2042
LeftUpLeg  -23.5625 -1.536 1.61998
LeftLeg  30.0529 16.1786 10.2091
LeftFoot  -11.3272 0.0681387 -1.43434
LeftToes  -6.11857e-011 5.00151e-011 -2.22593e-011
631
root  -18.1318 38.9117 53.115 -175.696 50.2162 178.903
RightUpLeg  -1.91414 -6.04651 -3.12021
RightLeg  14.736 3.27685 1.04008
RightFoot  -17.7834 0.143544 4.69063
RightToes  5.38607e-012 1.2921e-014 -6.02303e-014
Spine  -4.85592 1.39282 8.24715
Spine1  8.16922 1.98061 -3.73854
HEad  8.71532 32.8116 -7.88911
LeftShoulder1  0.13702 2.86602 -25.3299
LeftArm  -8.23732 11.8172 -49.1015
LeftForeArm  31.9462 0.331551 -10.3429
LeftHand  -0.0273648 4.95484 1.95427
RightShoulder  1.97591 3.11867 24.6906
RightArm  -44.6532 6.80508 46.8868
RightForeArm  78.462 -2.39984 -11.1701
RightHand  0.61026 -10.0676 -15.7078
LeftUpLeg  -24.8298 -1.82486 -1.73266
LeftLeg  27.7917 16.7429 9.67325
LeftFoot  -9.81709 0.068013 -0.681502
LeftToes  -6.11857e-011 5.00151e-011 -2.22593e-011
632
root  -17.3383 38.871 52.8722 -176.508 51.2556 178.251
RightUpLeg  -0.222595 -6.09523 -3.30229
RightLeg  14.3454 4.16882 1.16428
RightFoot  -18.4671 0.124461 4.00749
RightToes  5.38607e-012 1.2921e-014 -6.02303e-014
Spine  -4.74063 2.16286 8.94812
Spine1  8.19859 2.81366 -4.15947
HEad  8.87406 33.6141 -7.87746
LeftShoulder1  0.0183527 3.2449 -25.2503
LeftArm  -8.18389 12.4842 -49.0266
LeftForeArm  31.3804 1.64038 -10.4005
LeftHand  -0.0294082 5.20651 1.93528
RightShoulder  2.06391 3.40062 24.718
RightArm  -43.7838 8.14165 47.9155
RightForeArm  78.4744 -2.47843 -10.731
RightHand  0.595216 -10.0171 -15.5127
LeftUpLeg  -25.4644 -0.925191 -4.89753
LeftLeg  23.9925 15.9792 7.95104
LeftFoot  -9.2646 0.073187 -0.968558
LeftToes  -6.11857e-011 5.00151e-011 -2.22593e-011
633
root  -16.5185 38.7818 52.5959 -176.979 52.4124 177.938
RightUpLeg  1.36539 -5.97919 -3.28298
RightLeg  14.1316 5.05527 1.27936
RightFoot  -19.3512 0.104558 3.36519
RightToes  5.38607e-012 1.2921e-014 -6.02303e-014
Spine  -4.65641 2.91376 9.62223
Spine1  8.22021 3.61329 -4.54203
HEad  8.81171 34.5118 -7.90039
LeftShoulder1  -0.117806 3.68278 -25.0694
LeftArm  -8.65658 13.3034 -48.7995
LeftForeArm  30.4199 3.09996 -10.2608
LeftHand  -0.0305742 5.06193 1.66038
RightShoulder  2.12914 3.60706 24.7489
RightArm  -41.693 9.61511 49.3668
RightForeArm  77.7077 -2.7614 -9.33584
RightHand  0.530757 -9.67142 -15.0365
LeftUpLeg  -25.9808 0.141975 -7.6177
LeftLeg  19.7767 15.4837 6.39309
LeftFoot  -8.47048 0.0869194 -1.43887
LeftToes  -6.11857e-011 5.00151e-011 -2.22593e-011
634
root  -15.6816 38.6348 52.2746 -177.046 53.3158 178.1
RightUpLeg  2.84767 -5.82168 -3.00748
RightLeg  14.3262 5.66166 1.42662
RightFoot  -20.3383 0.0850714 2.83205
RightToes  5.38607e-012 1.2921e-014 -6.02303e-014
Spine  -4.39406 3.37777 10.3384
Spine1  7.87093 4.1 -4.88143
HEad  8.7448 35.6259 -7.81449
LeftShoulder1  -0.210437 3.98704 -24.772
LeftArm  -8.82891 14.6598 -48.3555
LeftForeArm  28.8091 4.14811 -10.2356
LeftHand  -0.029839 5.04087 1.55144
RightShoulder  2.19395 3.77816 24.9329
RightArm  -38.7253 11.143 51.0578
RightForeArm  76.7816 -3.16694 -7.28157
RightHand  0.457298 -9.0748 -15.1218
LeftUpLeg  -26.4313 -0.126263 -9.34774
LeftLeg  15.9975 18.2316 5.91942
LeftFoot  -6.72774 0.110643 -1.74335
LeftToes  -6.11857e-011 5.00151e-011 -2.22593e-011
635
root  -14.8187 38.4721 51.924 -176.907 54.1558 178.553
RightUpLeg  4.40446 -5.42937 -2.56577
RightLeg  14.6001 6.04806 1.50482
RightFoot  -21.2847 0.0518607 2.2533
RightToes  5.38607e-012 1.2921e-014 -6.02303e-014
Spine  -4.25089 3.68705 10.6915
Spine1  7.78646 4.37013 -4.85058
HEad  8.25141 36.838 -8.11483
LeftShoulder1  -0.249299 4.12099 -24.4646
LeftArm  -8.79406 16.0831 -47.868
LeftForeArm  27.5674 5.00498 -10.2819
LeftHand  -0.0311967 5.13277 1.2362
RightShoulder  2.2556 3.92876 25.1544
RightArm  -34.6204 12.7351 52.8915
RightForeArm  75.2067 -3.73936 -4.41018
RightHand  0.399657 -8.52235 -15.5841
LeftUpLeg  -26.5561 -2.08047 -9.63586
LeftLeg  12.6949 24.6293 5.54598
LeftFoot  -5.86712 0.0994945 -1.34345
LeftToes  -6.11857e-011 5.00151e-011 -2.22593e-011
636
root  -13.8806 38.2949 51.5327 -177.028 54.8942 178.63
RightUpLeg  5.92753 -4.98006 -2.36704
RightLeg  15.2134 6.36297 1.62449
RightFoot  -22.244 0.0389845 1.98738
RightToes  5.38607e-012 1.2921e-014 -6.02303e-014
Spine  -4.53 3.74835 10.0601
Spine1  7.93975 4.30276 -4.34832
HEad  7.64832 38.1591 -8.1304
LeftShoulder1  -0.260699 4.17164 -23.9746
LeftArm  -8.75298 17.7469 -47.3386
LeftForeArm  26.8405 5.65769 -10.3385
LeftHand  -0.0283211 5.04212 1.04135
RightShoulder  2.31355 3.99587 25.6881
RightArm  -30.2796 14.4251 54.7987
RightForeArm  73.979 -4.29762 -1.4903
RightHand  0.337028 -7.92231 -16.3001
LeftUpLeg  -26.2787 -3.89384 -9.76129
LeftLeg  9.73172 31.2045 4.79906
LeftFoot  -5.69134 0.101698 -1.36762
LeftToes  -6.11857e-011 5.00151e-011 -2.22593e-011
637
root  -12.8648 38.1199 51.095 -176.771 55.5363 179.259
RightUpLeg  7.25916 -4.08783 -1.72047
RightLeg  16.6376 6.28446 1.78303
RightFoot  -22.7576 0.042207 1.96466
RightToes  5.38607e-012 1.2921e-014 -6.02303e-014
Spine  -4.67221 3.56319 9.42768
Spine1  7.71419 3.95974 -3.76406
HEad  6.85813 39.4529 -8.05637
LeftShoulder1  -0.236937 4.10701 -23.4069
LeftArm  -8.5139 19.6559 -46.6831
LeftForeArm  26.7411 6.10982 -10.4649
LeftHand  -0.0276176 5.15872 0.914187
RightShoulder  2.33115 3.93611 26.2149
RightArm  -26.5289 15.7026 57.1352
RightForeArm  73.3248 -4.73224 0.89355
RightHand  0.268285 -7.32373 -17.0847
LeftUpLeg  -25.7053 -4.6621 -9.77044
LeftLeg  8.06686 34.3322 4.33475
LeftFoot  -5.8464 0.0670875 -0.66525
LeftToes  -6.11857e-011 5.00151e-011 -2.22593e-011
638
root  -11.7655 37.9627 50.5951 -176.362 56.1264 -179.89
RightUpLeg  8.4707 -3.26306 -1.11932
RightLeg  18.7257 6.64331 2.2849
RightFoot  -22.7845 0.0729496 2.26875
RightToes  5.38607e-012 1.2921e-014 -6.02303e-014
Spine  -5.2131 3.38679 8.54708
Spine1  7.90542 3.60253 -3.06931
HEad  5.75335 40.5465 -7.99803
LeftShoulder1  -0.183546 3.93488 -22.9714
LeftArm  -8.07941 21.0807 -45.9048
LeftForeArm  27.2417 6.83833 -10.64
LeftHand  -0.028543 5.38696 0.779481
RightShoulder  2.34372 3.89897 26.5696
RightArm  -23.1488 15.9101 59.4384
RightForeArm  72.0749 -5.14367 3.03766
RightHand  0.206876 -6.8784 -17.3277
LeftUpLeg  -25.2312 -4.19847 -9.93062
LeftLeg  9.02118 33.8857 4.81968
LeftFoot  -5.78679 -0.164416 4.1069
LeftToes  -6.11857e-011 5.00151e-011 -2.22593e-011
639
root  -10.6591 37.8796 50.066 -176.789 56.9389 179.935
RightUpLeg  8.74192 -2.40745 -1.41264
RightLeg  22.5862 7.9101 3.38923
RightFoot  -22.0736 0.158637 3.28084
RightToes  5.38607e-012 1.2921e-014 -6.02303e-014
Spine  -5.68339 3.24159 6.86397
Spine1  8.12463 3.39463 -2.84594
HEad  4.70929 41.6001 -7.33019
LeftShoulder1  -0.18862 3.96184 -22.5273
LeftArm  -7.5768 22.1868 -45.1121
LeftForeArm  28.0797 7.52194 -10.8327
LeftHand  -0.0278678 5.63247 0.886083
RightShoulder  2.35801 3.79945 27.2512
RightArm  -20.5162 15.8027 61.1264
RightForeArm  70.2692 -5.47793 4.62082
RightHand  0.138989 -6.40553 -17.5248
LeftUpLeg  -25.0543 -3.37478 -10.3875
LeftLeg  12.4247 33.4005 6.98495
LeftFoot  -3.84852 -0.52898 8.41726
LeftToes  -6.11857e-011 5.00151e-011 -2.22593e-011
